<svg width="32" height="32" viewBox="0 0 128 128" fill="none" xmlns="http://www.w3.org/2000/svg">
  <rect width="128" height="128" rx="12" fill="#2196F3"/>
  <path d="M96 16L112 32V112C112 120.837 104.837 128 96 128H32C23.163 128 16 120.837 16 112V32C16 23.163 23.163 16 32 16H96Z" fill="#2196F3"/>
  <path d="M96 16V32H112L96 16Z" fill="white"/>
  
  <!-- Grid pattern -->
  <rect x="48" y="56" width="12" height="12" fill="white"/>
  <rect x="68" y="56" width="12" height="12" fill="white"/>
  <rect x="48" y="76" width="12" height="12" fill="white"/>
  <rect x="68" y="76" width="12" height="12" fill="white"/>
  <rect x="58" y="66" width="12" height="12" fill="white"/>
  
  <!-- Cursor arrow -->
  <path d="M85 85L95 105L90 103L85 108L78 95L85 85Z" fill="white"/>
</svg>